<svg xmlns="http://www.w3.org/2000/svg" fill="none" viewBox="0 0 27 17">
  <path fill="#dc3232" d="M23.3611.34717H9.2559l-8.9196 8 8.9196 8.00003h14.1052c1.8171 0 3.2894-1.4727 3.2894-3.2888V3.63628c.0004-1.81641-1.4727-3.28911-3.2894-3.28911ZM21.5055 11.5495c.5514.5514.5514 1.4442.0006 1.995-.5514.5511-1.4445.5511-1.9953-.0003l-3.2023-3.2024-3.2027 3.2024c-.5511.5514-1.4442.5514-1.995.0003-.5507-.5511-.5507-1.4439.0004-1.995l3.2023-3.20233-3.2023-3.20235c-.5511-.55109-.5511-1.44422 0-1.99497.5511-.55076 1.4439-.55075 1.9949.00033l3.2027 3.20235 3.2024-3.20235h.0003c.5511-.55108 1.4439-.55109 1.995-.00033.5507.55109.5507 1.44388-.0004 1.99497h-.0003l-3.2027 3.20235 3.2024 3.20233Z"/>
</svg>