<svg xmlns="http://www.w3.org/2000/svg" fill="none" viewBox="0 0 16 16">
  <path fill="#currentColor" d="M8 0C3.584 0 0 3.584 0 8s3.584 8 8 8 8-3.584 8-8-3.584-8-8-8Zm6.352 7.2h-2.768c-.088-2.024-.52-3.832-1.168-5.128 2.104.856 3.648 2.8 3.936 5.128ZM1.648 8.8h2.768c.088 2.024.52 3.832 1.168 5.128a6.41367 6.41367 0 0 1-2.6613-2.0319A6.41339 6.41339 0 0 1 1.648 8.8Zm2.768-1.6H1.648c.288-2.328 1.832-4.272 3.936-5.128C4.936 3.368 4.512 5.176 4.416 7.2ZM9.088 13c-.272.6-.552.992-.784 1.208-.112.104-.192.152-.24.176-.04.016-.056.016-.064.016s-.024 0-.064-.016c-.048-.024-.128-.072-.24-.176-.232-.216-.512-.608-.784-1.208-.464-1.04-.808-2.504-.896-4.2h3.96c-.08 1.696-.424 3.16-.888 4.2ZM6.016 7.2c.08-1.696.424-3.16.896-4.2.272-.6.552-.992.784-1.208.112-.104.192-.152.24-.176.04-.016.056-.016.064-.016s.024 0 .064.016c.048.024.128.072.24.176.232.216.512.608.784 1.208.464 1.04.808 2.504.896 4.2H6.016Zm4.4 6.728c.64-1.296 1.072-3.104 1.168-5.128h2.768c-.288 2.328-1.832 4.272-3.936 5.128Z"/>
</svg>