<svg xmlns="http://www.w3.org/2000/svg" fill="none" viewBox="0 0 17 17">
  <path fill="currentColor" fill-rule="evenodd" d="M9.72663.5462v2.21413a6.66594 6.66594 0 0 1 4.51187 1.7595 6.66534 6.66534 0 0 1 2.1303 4.34913 6.66603 6.66603 0 0 1-5.5312 7.13024v-5.4618h2.2221V9.42643L10.8376 7.2044H6.39358v3.333h2.22203v5.4618a6.61492 6.61492 0 0 1-3.60192-1.8598l-.78659-.7844-1.64277 1.6428C1.2205 13.4617.39221 11.4394.39221 9.22367c0-4.80501 3.89523-8.70023 8.70023-8.70023.21327 0 .42476.00767.63419.02276ZM4.26271 16.4613a8.5838 8.5838 0 0 0 .21008.1362 9.2191 9.2191 0 0 1-.19681-.1494l-.01327.0132Z" clip-rule="evenodd"/>
</svg>