<svg xmlns="http://www.w3.org/2000/svg" fill="none" viewBox="0 0 18 17">
  <g fill="currentColor" clip-path="url(#a)">
    <path d="M2.93282 4.34966 13.854 1.42419c.7721-.20697 1.7683-.22091 2.2198.54799.1452.24619.2122.53062.1923.81572a1.41197 1.41197 0 0 1-.3038.78106l-4.8086 6.14048c-.2037.26166-.4858.43966-.7935.52116a1.49253 1.49253 0 0 1-.94803-.0536L2.17893 7.26011a1.41228 1.41228 0 0 1-.89544-1.32547c.00751-.89329.87721-1.37801 1.64933-1.58498Z"/>
    <path d="M8.7247 11.7717a3.2815 3.2815 0 0 0 2.0804.1222 3.28267 3.28267 0 0 0 1.7427-1.1474c1.6568-2.11689 4.3528-5.689 4.3528-5.689l1.2622 4.71313c.4546 1.69757-.4043 2.96837-2.1019 3.42417l-9.15604 2.4514c-1.69758.4547-3.07774-.2166-3.53136-1.9131L2.11023 9.01996s4.1201 1.74694 6.61447 2.75174Z"/>
  </g>
  <defs>
    <clipPath id="a">
      <path fill="currentColor" d="M.85547 0h17v17h-17z"/>
    </clipPath>
  </defs>
</svg>