<svg xmlns="http://www.w3.org/2000/svg" fill="none" viewBox="0 0 18 17">
  <path fill="currentColor" d="M14.9681 4.7762a2.21891 2.21891 0 0 0-1.4793.56666 2.21819 2.21819 0 0 0-.7243 1.40879l-.0011.0101-1.717.45953a2.1709 2.1709 0 0 0-.9456-.70152l-.0152-.00478V4.64232c.8306-.33521 1.406-1.13475 1.406-2.06921 0-1.22932-.9961-2.22594-2.22595-2.22594A2.22538 2.22538 0 0 0 7.04024 2.5731a2.22686 2.22686 0 0 0 .38018 1.24461 2.2268 2.2268 0 0 0 1.0109.81956l.01461.00531v1.81608a2.05715 2.05715 0 0 0-.52036.29298l.00478-.00372-3.26453-1.78048a1.7562 1.7562 0 0 0 0-.1955v.00478c0-1.22958-.99609-2.22594-2.22567-2.22594a2.2254 2.2254 0 0 0-2.0564 1.37409 2.22542 2.22542 0 0 0-.16927.85185A2.22539 2.22539 0 0 0 2.44042 7.0024a2.17358 2.17358 0 0 0 1.47103-.57375l-.0016.00133 3.16519 1.74516a2.09064 2.09064 0 0 0 .00053.37586l-.00053-.00797a2.26537 2.26537 0 0 0 .17531.87018l-.00558-.01487-2.47323 2.40206a2.15332 2.15332 0 0 0-.91109-.2051h-.00053l-.0425-.0005c-.29321 0-.58355.0577-.85444.17a2.23302 2.23302 0 0 0-.72433.484 2.23208 2.23208 0 0 0-.48394.7244 2.2321 2.2321 0 0 0-.16987.8544c0 .2932.05774.5835.16994.8544.1122.2709.27665.517.48396.7243a2.2331 2.2331 0 0 0 .7243.484c.27087.1122.56119.1699.85438.1699.2932 0 .58355-.0577.85445-.1699a2.2314 2.2314 0 0 0 .72439-.4839 2.23223 2.23223 0 0 0 .48403-.7243 2.23308 2.23308 0 0 0 .16997-.8545 2.11082 2.11082 0 0 0-.16734-.8898l.00531.0138 2.47297-2.4023c.28418.1314.59374.1989.90684.1976h.00531a2.108 2.108 0 0 0 .61572-.0956l-.01487.004.7066 1.0954a2.19086 2.19086 0 0 0-.3958 1.2575v.0069c0 .5921.2352 1.16.6539 1.5787.4187.4187.9865.6539 1.5787.6539a2.2324 2.2324 0 0 0 1.5786-.6539 2.23264 2.23264 0 0 0 0-3.1574 2.2324 2.2324 0 0 0-1.5786-.6539 2.0809 2.0809 0 0 0-.4877.0592l.0143-.0031-.7775-1.18021a2.08192 2.08192 0 0 0 .2959-.86647l.0008-.0093 1.7239-.45953a2.22595 2.22595 0 0 0 1.1127.80984 2.2254 2.2254 0 0 0 1.3762.0006 2.2257 2.2257 0 0 0 1.1135-.80885 2.22615 2.22615 0 0 0 .4248-1.309 2.22514 2.22514 0 0 0-.6516-1.57402 2.22474 2.22474 0 0 0-1.5738-.65191h-.0218.0011l-.0003-.01355Z"/>
</svg>