<svg xmlns="http://www.w3.org/2000/svg" fill="none" viewBox="0 0 15 18">
  <path fill="currentColor" d="M7.77513.0603.77698 3.06346c0 10.99314 6.99815 13.99684 6.99815 13.99684s6.99817-3.0032 6.99817-13.99684L7.77513.0603Zm.94191 8.76935v3.50625H6.82579V8.82965c-.84309-.37453-1.42003-1.20382-1.42003-2.16857a2.36586 2.36586 0 0 1 1.23778-2.07921 2.36587 2.36587 0 0 1 2.41784.09614 2.36589 2.36589 0 0 1 .83293.93849 2.36653 2.36653 0 0 1 .23589 1.23243 2.36655 2.36655 0 0 1-.42759 1.17972 2.3659 2.3659 0 0 1-.97069.79515l-.01488.00585Z"/>
</svg>