<svg xmlns="http://www.w3.org/2000/svg" fill="none" viewBox="0 0 18 18">
  <path fill="currentColor" d="M8.60082.75 1.60266 3.75316C1.60266 14.7463 8.60082 17.75 8.60082 17.75S15.599 14.7468 15.599 3.75316L8.60082.75Zm.9419 8.76934v3.50626H7.65147V9.51934c-.84309-.37453-1.42003-1.20381-1.42003-2.16856a2.36595 2.36595 0 0 1 2.45992-2.36363A2.36588 2.36588 0 0 1 10.72 6.30619a2.3665 2.3665 0 0 1 .2359 1.23244 2.36653 2.36653 0 0 1-.4276 1.17971 2.36588 2.36588 0 0 1-.9707.79516l-.01488.00584Z"/>
</svg>