<svg xmlns="http://www.w3.org/2000/svg" fill="none" viewBox="0 0 17 17">
  <path fill="currentColor" d="M5.3114 15.5911a7.39692 7.39692 0 0 0 2.9735.6025v-1.1485c-1.83894-.018-3.37905-.6584-4.62198-1.9218-1.24128-1.2643-1.86357-2.7847-1.86357-4.5629 0-.243.01806-.486.05172-.72818a30.03555 30.03555 0 0 1 .11329-.73312l3.90775 3.9078h.79058V8.5604H5.03392V6.93573h1.62467a.79631.79631 0 0 0 .58534-.23643.79643.79643 0 0 0 .23643-.58698V4.50571h1.60907c.44825 0 .83163-.15927 1.14937-.4778.3169-.31771.4761-.70028.4761-1.14688v-.3448a6.30507 6.30507 0 0 1 2.6 1.92104 6.4347 6.4347 0 0 1 1.3316 2.91767h1.1731c-.2791-1.83565-1.1255-3.37002-2.54-4.60063C11.8651 1.54288 10.201.92716 8.28818.92716a7.42719 7.42719 0 0 0-2.9776.60176 7.69494 7.69494 0 0 0-2.42346 1.63452 7.76703 7.76703 0 0 0-1.6337 2.42346 7.39433 7.39433 0 0 0-.60176 2.97186c0 1.05575.2003 2.04744.60176 2.97594a7.69405 7.69405 0 0 0 1.63452 2.4235 7.76772 7.76772 0 0 0 2.42346 1.6337v-.0008Z"/>
  <path fill="currentColor" d="m9.18628 12.0863 1.20842 1.2084.7143-.7142-1.20684-1.2076a1.37682 1.37682 0 0 1-.42115-1.0098c0-.39159.13956-.72736.41951-1.00813.27998-.27912.61568-.41951 1.00898-.41869.3924 0 .7282.13957 1.0089.41951l1.2068 1.20841.7143-.71419-1.2077-1.20927a2.35067 2.35067 0 0 0-.7867-.53587 2.3514 2.3514 0 0 0-.9348-.18 2.34295 2.34295 0 0 0-1.72237.71423 2.35115 2.35115 0 0 0-.71588 1.724c0 .6724.23808 1.2462.71423 1.7232Z"/>
  <path fill="currentColor" d="m11.6015 10.4034-.6526.6527 2.5728 2.5728.6527-.6526-2.5729-2.5729Z"/>
  <path fill="currentColor" d="m11.9973 13.468-.7142.7143 1.2084 1.2092c.4762.4762 1.0509.7143 1.7216.7159.3205.0051.6387-.0557.9348-.1785.2961-.1229.5639-.3052.7867-.5357.2309-.2232.4136-.4913.5368-.7878a2.3504 2.3504 0 0 0 .1799-.9362c0-.6724-.2381-1.2462-.7142-1.7232l-1.2093-1.2085-.7142.7143 1.2076 1.2076c.2808.2808.4203.6165.4212 1.0098 0 .3916-.1396.7273-.4204 1.0073-.2791.2799-.6157.4203-1.0081.4203-.3924 0-.7282-.1404-1.009-.4211l-1.2068-1.2068-.0008-.0009Z"/>
</svg>