<svg xmlns="http://www.w3.org/2000/svg" fill="none" viewBox="0 0 17 16">
  <path fill="#000" d="M4.71264 14.7168a7.39709 7.39709 0 0 0 2.9735.6026v-1.1485c-1.83894-.0181-3.37905-.6584-4.62197-1.9219C1.82288 10.9847 1.2006 9.46433 1.2006 7.68614c0-.24301.01806-.48601.05172-.72819.03448-.243.07224-.48765.11329-.73311l3.90775 3.90776h.79058V7.68614H4.43516V6.06147h1.62467a.79632.79632 0 0 0 .58534-.23644.79643.79643 0 0 0 .23644-.58698V3.63144h1.60907c.44824 0 .83163-.15927 1.14934-.4778.31689-.31771.47618-.70027.47618-1.14687v-.3448A6.30474 6.30474 0 0 1 12.7161 3.583a6.43259 6.43259 0 0 1 1.3316 2.91768h1.1732c-.2792-1.83566-1.1256-3.37002-2.5401-4.60064C11.2663.66861 9.60225.05289 7.68943.05289a7.4272 7.4272 0 0 0-2.97761.60176 7.69472 7.69472 0 0 0-2.42346 1.63453 7.7669 7.7669 0 0 0-1.6337 2.42346A7.3943 7.3943 0 0 0 .0529 7.68449c0 1.05575.20031 2.04747.60176 2.97601a7.69376 7.69376 0 0 0 1.63452 2.4234 7.76795 7.76795 0 0 0 2.42346 1.6337v-.0008Z"/>
  <path fill="#000" d="m8.58753 11.212 1.20845 1.2085.71422-.7143-1.2068-1.2076a1.37741 1.37741 0 0 1-.31519-.4612 1.3773 1.3773 0 0 1-.10596-.54856c0-.3916.13957-.72737.41951-1.00814.27995-.27912.61572-.41951 1.00894-.41868.3924 0 .7282.13956 1.009.4195l1.2068 1.20845.7142-.71423-1.2076-1.20927a2.35108 2.35108 0 0 0-.7868-.53587 2.35158 2.35158 0 0 0-.9348-.18 2.34292 2.34292 0 0 0-1.72233.71423 2.35126 2.35126 0 0 0-.71587 1.72401c0 .67236.23808 1.24616.71423 1.72316Z"/>
  <path fill="#000" d="m11.0028 9.52914-.6527.65266 2.5729 2.5729.6526-.6527-2.5728-2.57286Z"/>
  <path fill="#000" d="m11.3986 12.5938-.7143.7142 1.2085 1.2093c.4761.4761 1.0508.7142 1.7215.7159.3206.005.6387-.0558.9349-.1786.2961-.1229.5638-.3052.7867-.5357a2.3526 2.3526 0 0 0 .5368-.7878c.1232-.2965.1844-.6151.1799-.9362 0-.6724-.2381-1.2462-.7143-1.7232l-1.2092-1.20842-.7143.71422 1.2076 1.2076c.2808.2808.4204.6166.4212 1.0098 0 .3916-.1396.7274-.4203 1.0073-.2792.28-.6157.4204-1.0082.4204-.3924 0-.7282-.1404-1.0089-.4212l-1.2068-1.2068-.0008-.0008Z"/>
</svg>