<svg width="17" height="17" viewBox="0 0 17 17" fill="none" xmlns="http://www.w3.org/2000/svg">
<path d="M5.1195 15.9303C6.05839 16.3345 7.07085 16.5396 8.093 16.5329V15.3844C6.25406 15.3663 4.71395 14.726 3.47103 13.4625C2.22974 12.1982 1.60746 10.6778 1.60746 8.89964C1.60746 8.65664 1.62552 8.41363 1.65918 8.17145C1.69366 7.92845 1.73142 7.6838 1.77247 7.43834L5.68022 11.3461H6.4708V8.89964H4.84202V7.27497H6.46669C6.57522 7.27754 6.68313 7.25789 6.78379 7.21723C6.88445 7.17657 6.97574 7.11576 7.05203 7.03853C7.12947 6.96204 7.1904 6.87049 7.23106 6.76953C7.27173 6.66858 7.29126 6.56035 7.28847 6.45155V4.84494H8.89754C9.34578 4.84494 9.72917 4.68567 10.0469 4.36714C10.3638 4.04943 10.523 3.66687 10.523 3.22027V2.87547C11.5419 3.27898 12.438 3.94109 13.123 4.7965C13.806 5.64107 14.2641 6.64481 14.4546 7.71418H15.6277C15.3486 5.87852 14.5022 4.34416 13.0877 3.11354C11.6732 1.88211 10.0091 1.26639 8.09629 1.26639C7.07289 1.25969 6.05916 1.46456 5.11868 1.86815C4.21384 2.25314 3.39118 2.80799 2.69522 3.50268C2.0022 4.19984 1.44782 5.02221 1.06152 5.92614C0.657798 6.86455 0.452904 7.87644 0.459761 8.898C0.459761 9.95374 0.660074 10.9455 1.06152 11.874C1.44649 12.7788 2.00134 13.6015 2.69604 14.2974C3.39323 14.9904 4.2156 15.5448 5.1195 15.9311V15.9303Z" fill="black"/>
<path d="M15.6277 9.78308H12.1991V4.53308L7.05627 11.2831H10.4848V16.5331L15.6277 9.78308Z" fill="#F7B500"/>
</svg>
