<svg width="17" height="17" viewBox="0 0 17 17" fill="currentColor" xmlns="http://www.w3.org/2000/svg">
<path d="M5.46374 15.4563C6.40263 15.8605 7.41509 16.0656 8.43724 16.0589V14.9104C6.5983 14.8923 5.05819 14.252 3.81526 12.9885C2.57398 11.7242 1.9517 10.2038 1.9517 8.42564C1.9517 8.18264 1.96976 7.93963 2.00342 7.69745C2.0379 7.45445 2.07566 7.2098 2.11671 6.96434L6.02445 10.8721H6.81503V8.42564H5.18626V6.80097H6.81093C6.91946 6.80354 7.02737 6.78389 7.12803 6.74323C7.22869 6.70257 7.31997 6.64176 7.39627 6.56453C7.4737 6.48804 7.53463 6.39649 7.5753 6.29554C7.61596 6.19458 7.6355 6.08635 7.63271 5.97755V4.37094H9.24178C9.69002 4.37094 10.0734 4.21168 10.3911 3.89314C10.708 3.57543 10.8673 3.19287 10.8673 2.74627V2.40147C11.8861 2.80498 12.7823 3.46709 13.4672 4.3225C14.1503 5.16707 14.6084 6.17081 14.7988 7.24018H15.972C15.6928 5.40452 14.8464 3.87016 13.4319 2.63955C12.0174 1.40811 10.3534 0.792396 8.44053 0.792396C7.41713 0.785693 6.4034 0.990565 5.46292 1.39416C4.55808 1.77914 3.73542 2.33399 3.03946 3.02868C2.34644 3.72584 1.79206 4.54822 1.40576 5.45214C1.00204 6.39055 0.797142 7.40244 0.804 8.424C0.804 9.47975 1.00431 10.4715 1.40576 11.4C1.79073 12.3048 2.34558 13.1275 3.04028 13.8234C3.73747 14.5164 4.55984 15.0708 5.46374 15.4571V15.4563Z" fill="currentColor"/>
<path d="M9.33863 11.9516L10.5471 13.1601L11.2613 12.4459L10.0545 11.2382C9.91902 11.1076 9.81175 10.9507 9.73931 10.777C9.66688 10.6033 9.63081 10.4166 9.63335 10.2285C9.63335 9.83686 9.77291 9.50109 10.0529 9.22033C10.3328 8.9412 10.6686 8.80082 11.0618 8.80164C11.4542 8.80164 11.79 8.9412 12.0708 9.22115L13.2776 10.4296L13.9918 9.71536L12.7842 8.50609C12.5612 8.27569 12.2935 8.09333 11.9974 7.97022C11.7013 7.84712 11.3832 7.78586 11.0626 7.79022C10.7419 7.78505 10.4236 7.84577 10.1273 7.96863C9.83108 8.09148 9.56319 8.27386 9.34027 8.50445C9.10957 8.72772 8.92703 8.99586 8.80391 9.29237C8.68079 9.58887 8.6197 9.90745 8.6244 10.2285C8.6244 10.9008 8.86247 11.4747 9.33863 11.9516Z" fill="currentColor"/>
<path d="M12.1497 13.3333L11.4354 14.0475L12.6439 15.2568C13.12 15.7329 13.6947 15.971 14.3654 15.9727C14.686 15.9777 15.0041 15.9169 15.3003 15.7941C15.5964 15.6712 15.8641 15.4889 16.087 15.2584C16.3178 15.0352 16.5005 14.7671 16.6238 14.4706C16.747 14.1741 16.8082 13.8555 16.8037 13.5344C16.8037 12.8621 16.5656 12.2882 16.0894 11.8112L14.8802 10.6028L14.1659 11.317L15.3735 12.5246C15.6543 12.8054 15.7939 13.1412 15.7947 13.5344C15.7947 13.926 15.6551 14.2618 15.3744 14.5417C15.0952 14.8217 14.7587 14.9621 14.3662 14.9621C13.9738 14.9621 13.638 14.8217 13.3573 14.5409L12.1505 13.3341L12.1497 13.3333Z" fill="currentColor"/>
</svg>
